<svg width="24" height="23" viewBox="0 0 24 23" fill="none" xmlns="http://www.w3.org/2000/svg">
<g filter="url(#filter0_d_16798_45206)">
<circle cx="12.1667" cy="10.1667" r="9.16667" fill="#5569DD"/>
<circle cx="12.1667" cy="10.1667" r="9.16667" stroke="#FAFAFA" stroke-width="1.63691"/>
</g>
<path d="M11.8924 9.38052C11.8924 9.80655 11.7946 10.1977 11.599 10.5539C11.4035 10.9031 11.1032 11.1859 10.6981 11.4024C10.293 11.6189 9.79014 11.7272 9.18951 11.7272H8.07903V14.3672H6.2876V7.0129H9.18951C9.77617 7.0129 10.272 7.11417 10.6771 7.31671C11.0822 7.51925 11.386 7.79861 11.5886 8.15481C11.7911 8.511 11.8924 8.91957 11.8924 9.38052ZM9.05331 10.3024C9.39554 10.3024 9.65046 10.2221 9.81808 10.0615C9.9857 9.90084 10.0695 9.67385 10.0695 9.38052C10.0695 9.08719 9.9857 8.8602 9.81808 8.69957C9.65046 8.53893 9.39554 8.45862 9.05331 8.45862H8.07903V10.3024H9.05331ZM16.2612 14.3672L14.7317 11.591H14.3021V14.3672H12.5107V7.0129H15.5174C16.0971 7.0129 16.5894 7.11417 16.9945 7.31671C17.4066 7.51925 17.7139 7.79861 17.9164 8.15481C18.119 8.50401 18.2202 8.89512 18.2202 9.32814C18.2202 9.81703 18.0805 10.2535 17.8012 10.6377C17.5288 11.0218 17.1237 11.2942 16.5859 11.4548L18.2831 14.3672H16.2612ZM14.3021 10.3234H15.4126C15.7409 10.3234 15.9853 10.2431 16.1459 10.0824C16.3136 9.92179 16.3974 9.69481 16.3974 9.40147C16.3974 9.12211 16.3136 8.90211 16.1459 8.74147C15.9853 8.58084 15.7409 8.50052 15.4126 8.50052H14.3021V10.3234Z" fill="white"/>
<defs>
<filter id="filter0_d_16798_45206" x="0.870164" y="0.181641" width="22.5917" height="22.5893" filterUnits="userSpaceOnUse" color-interpolation-filters="sRGB">
<feFlood flood-opacity="0" result="BackgroundImageFix"/>
<feColorMatrix in="SourceAlpha" type="matrix" values="0 0 0 0 0 0 0 0 0 0 0 0 0 0 0 0 0 0 127 0" result="hardAlpha"/>
<feOffset dy="1.30952"/>
<feGaussianBlur stdDeviation="0.654762"/>
<feComposite in2="hardAlpha" operator="out"/>
<feColorMatrix type="matrix" values="0 0 0 0 0.366667 0 0 0 0 0.366667 0 0 0 0 0.366667 0 0 0 0.1 0"/>
<feBlend mode="normal" in2="BackgroundImageFix" result="effect1_dropShadow_16798_45206"/>
<feBlend mode="normal" in="SourceGraphic" in2="effect1_dropShadow_16798_45206" result="shape"/>
</filter>
</defs>
</svg>
