<svg width="101" height="119" viewBox="0 0 101 119" fill="none" xmlns="http://www.w3.org/2000/svg">
<path d="M14.8496 92.8407L7.63505 92.9838C7.1456 92.9941 7.03825 92.8503 7.04209 92.4356C7.84271 2.32678 7.47211 8.21804 8.9986 8.31133C13.6094 8.59375 55.96 8.72601 65.6103 8.74135C65.949 10.9675 65.5867 21.7117 66.4199 70.0443C68.6991 68.0399 71.1808 65.8706 73.6549 63.7307C73.6063 55.3692 73.5654 46.3777 73.5705 37.944C73.5923 3.22452 74.7565 0.373445 70.7246 0.365778C69.9834 0.3645 9.78453 0.377918 9.04333 0.365778C4.46322 0.29038 1.12591 0.232234 0.904825 4.16061C0.321449 14.5521 -0.288763 95.3691 0.148928 97.0905C0.449881 98.2751 1.33485 99.1582 2.35783 99.1658L16.4298 99.2687C15.7314 97.1895 15.2081 95.0106 14.8502 92.8413L14.8496 92.8407ZM41.3443 3.41877C42.9456 3.49289 42.7526 5.75994 41.3149 5.73118C39.7878 5.70115 39.7437 3.34465 41.3443 3.41877ZM36.7342 3.12229C38.676 3.15168 38.7354 6.16185 36.7048 6.13118C34.7336 6.10178 34.763 3.09226 36.7342 3.12229Z" fill="#173F6F"/>
<path d="M66.623 81.1982L66.7668 88.6332L73.798 88.5649C73.7878 84.9196 73.7603 80.3075 73.7271 75.1223C71.5706 76.96 69.2083 78.9785 66.623 81.1982Z" fill="#173F6F"/>
<path d="M20.7908 86.0459C20.0496 85.9578 19.9454 85.0779 20.8502 85.0083C22.6879 84.8664 20.8502 84.9118 52.1135 84.9194C52.6176 84.9194 52.4253 86.0804 51.7966 86.1079C50.8113 86.1501 49.0925 86.136 46.0951 86.1501C44.8644 86.1558 21.6655 86.1495 20.7908 86.0459Z" fill="#173F6F"/>
<path d="M22.0803 90.1227C21.2062 90.0307 21.4279 89.2039 22.1097 89.2039C24.3781 89.2039 45.1751 89.4556 43.8409 89.4262C44.4933 89.4409 44.6269 90.3898 43.8556 90.4045C43.8556 90.4045 23.311 90.2524 22.0803 90.1227Z" fill="#173F6F"/>
<path d="M41.9929 93.132C42.3788 93.1058 42.8082 93.1467 42.8229 93.6215C42.8376 94.0962 42.4376 94.247 42.0076 94.2291C38.968 94.1026 40.8364 94.2585 22.8112 94.2438C22.4406 94.2438 21.8949 94.3326 21.877 93.8438C21.8514 93.1467 36.7924 93.4879 41.9929 93.132Z" fill="#173F6F"/>
<path d="M95.1933 91.6497C92.7167 89.3239 95.0004 89.945 58.5934 90.182C58.5276 89.0971 58.4803 88.1348 58.447 87.2811C58.1205 87.3846 57.8899 87.469 57.5755 87.5872C57.6004 89.2357 57.6324 89.729 57.6151 90.182C54.8286 90.1967 52.8273 90.2159 52.5896 90.2261C42.6199 90.6638 40.2685 102.749 34.7274 107.718C25.7243 115.791 15.5872 100.246 16.8204 82.1176C16.8772 81.2812 16.8235 81.8052 54.3136 81.671C54.5545 81.2052 54.7442 80.8691 54.9014 80.6186C34.4354 80.6001 22.8656 80.5394 16.6274 80.8429C15.6344 80.8908 15.8536 80.7835 15.7086 84.4748C15.2849 95.2362 19.8446 111.114 30.6214 111.246C58.4752 111.589 58.5934 110.579 58.6234 111.543C58.8458 118.776 58.6234 118.407 59.9723 118.554C61.484 118.719 62.0329 118.654 95.2674 118.539C100.411 118.521 100.455 118.584 100.471 117.383C100.567 110.164 100.468 96.603 95.1933 91.6497ZM58.1046 110.031C58.0899 110.031 33.4232 110.327 33.4085 110.327C34.1644 109.72 34.9222 109.321 35.558 108.741C39.303 105.327 41.0723 100.292 44.6154 95.9928C53.4497 85.2748 57.4937 95.9397 58.5793 109.72C58.6119 110.134 58.3122 110.016 58.1046 110.031ZM60.9064 117.428C59.5429 117.443 60.7333 116.612 60.1058 109.127C58.6637 91.9155 54.1851 92.2599 54.3692 91.5903C54.4625 91.2504 63.5747 91.5903 63.5747 91.4421C94.7639 91.4421 92.6611 90.6248 94.7786 93.1615C99.1562 98.4055 98.861 111.808 99.1517 116.538C99.2156 117.576 102.428 116.957 60.9064 117.428V117.428Z" fill="#173F6F"/>
<path d="M92.7233 53.598C92.1769 52.752 91.4926 51.9322 90.292 51.9967C89.0319 52.0651 56.5667 80.4575 55.931 81.6588C55.0843 83.2588 54.3655 84.9162 53.6333 86.5654C53.0026 87.9852 55.4869 86.775 57.3393 86.0913C59.3411 85.352 58.4805 86.2395 63.4024 82C94.3826 55.3155 94.4338 56.2471 92.7233 53.598ZM62.1123 82.1042C60.2721 83.7175 59.7999 84.7424 57.1316 85.4836C56.8645 85.5578 56.7169 85.5277 56.5386 85.3354C55.2677 83.9674 55.1316 84.7137 56.3016 82.3112C56.8358 81.2147 58.1712 84.5961 58.7034 84.2083C58.9264 84.046 58.7469 83.853 58.644 83.7041C56.9866 81.3106 56.8377 81.3796 57.2805 81.0211C63.8356 75.71 81.8142 59.8975 86.6607 55.6427C87.2684 55.1091 87.0646 55.4906 89.3291 57.7775C89.8307 58.2842 91.4632 56.3647 62.113 82.1035L62.1123 82.1042ZM90.3961 57.4969C89.6997 58.1346 90.0939 57.472 87.639 55.244C87.3438 54.9762 87.5361 54.8446 87.7432 54.7251C87.9214 54.6222 88.0102 54.1469 88.3508 54.5475C90.5028 57.0797 90.7527 57.1711 90.3961 57.4969ZM91.6562 56.3558C90.6933 57.3647 91.3048 56.6618 88.7808 54.2657C88.5904 54.0849 88.5451 53.9571 88.7955 53.7916C89.2581 53.4849 89.8479 52.8683 90.2038 52.8728C90.8415 52.8804 91.8396 53.5526 92.3386 54.9775C92.4734 55.3622 92.2645 55.7187 91.6562 56.3558Z" fill="#173F6F"/>
<path d="M87.252 58.0442C87.4788 58.3375 87.1037 58.5778 86.9849 58.6966C84.9083 60.5151 74.7046 69.5047 73.9832 70.037C73.4848 70.4044 73.2305 69.8511 73.5551 69.5367C74.1391 68.9712 84.1971 60.4014 86.4661 58.3561C86.7542 58.096 87.0775 57.8193 87.252 58.0442Z" fill="#173F6F"/>
<path d="M59.136 82.5633C58.3948 82.5301 58.8715 82.0994 72.0329 70.7341C72.2399 70.5552 72.776 71.1066 72.5223 71.3271C59.3411 82.7818 59.4325 82.5767 59.136 82.5633Z" fill="#173F6F"/>
</svg>
