<svg width="101" height="119" viewBox="0 0 101 119" fill="none" xmlns="http://www.w3.org/2000/svg">
<path d="M14.8496 92.8407L7.63505 92.9838C7.1456 92.9941 7.03825 92.8503 7.04209 92.4356C7.84271 2.32678 7.47211 8.21804 8.9986 8.31133C13.6094 8.59375 55.96 8.72601 65.6103 8.74135C65.949 10.9675 65.5867 21.7117 66.4199 70.0443C68.6991 68.0399 71.1808 65.8706 73.6549 63.7307C73.6063 55.3692 73.5654 46.3777 73.5705 37.944C73.5923 3.22452 74.7565 0.373445 70.7246 0.365778C69.9834 0.3645 9.78453 0.377918 9.04333 0.365778C4.46322 0.29038 1.12591 0.232234 0.904825 4.16061C0.321449 14.5521 -0.288763 95.3691 0.148928 97.0905C0.449881 98.2751 1.33485 99.1582 2.35783 99.1658L16.4298 99.2687C15.7314 97.1895 15.2081 95.0106 14.8502 92.8413L14.8496 92.8407ZM41.3443 3.41877C42.9456 3.49289 42.7526 5.75994 41.3149 5.73118C39.7878 5.70115 39.7437 3.34465 41.3443 3.41877ZM36.7342 3.12229C38.676 3.15168 38.7354 6.16185 36.7048 6.13118C34.7336 6.10178 34.763 3.09226 36.7342 3.12229Z" fill="#173F6F"/>
<path d="M66.623 81.1982L66.7668 88.6332L73.798 88.5649C73.7878 84.9196 73.7603 80.3075 73.7271 75.1223C71.5706 76.96 69.2083 78.9785 66.623 81.1982Z" fill="#173F6F"/>
<path d="M20.7908 86.0459C20.0496 85.9578 19.9454 85.0779 20.8502 85.0083C22.6879 84.8664 20.8502 84.9118 52.1135 84.9194C52.6176 84.9194 52.4253 86.0804 51.7966 86.1079C50.8113 86.1501 49.0925 86.136 46.0951 86.1501C44.8644 86.1558 21.6655 86.1495 20.7908 86.0459Z" fill="#173F6F"/>
<path d="M22.0803 90.1227C21.2062 90.0307 21.4279 89.2039 22.1097 89.2039C24.3781 89.2039 45.1751 89.4556 43.8409 89.4262C44.4933 89.4409 44.6269 90.3898 43.8556 90.4045C43.8556 90.4045 23.311 90.2524 22.0803 90.1227Z" fill="#173F6F"/>
<path d="M41.9929 93.132C42.3788 93.1058 42.8082 93.1467 42.8229 93.6215C42.8376 94.0962 42.4376 94.247 42.0076 94.2291C38.968 94.1026 40.8364 94.2585 22.8112 94.2438C22.4406 94.2438 21.8949 94.3326 21.877 93.8438C21.8514 93.1467 36.7924 93.4879 41.9929 93.132Z" fill="#173F6F"/>
<path d="M95.1933 91.6497C92.7167 89.3239 95.0004 89.945 58.5934 90.182C58.5276 89.0971 58.4803 88.1348 58.447 87.2811C58.1205 87.3846 57.8899 87.469 57.5755 87.5872C57.6004 89.2357 57.6324 89.729 57.6151 90.182C54.8286 90.1967 52.8273 90.2159 52.5896 90.2261C42.6199 90.6638 40.2685 102.749 34.7274 107.718C25.7243 115.791 15.5872 100.246 16.8204 82.1176C16.8772 81.2812 16.8235 81.8052 54.3136 81.671C54.5545 81.2052 54.7442 80.8691 54.9014 80.6186C34.4354 80.6001 22.8656 80.5394 16.6274 80.8429C15.6344 80.8908 15.8536 80.7835 15.7086 84.4748C15.2849 95.2362 19.8446 111.114 30.6214 111.246C58.4752 111.589 58.5934 110.579 58.6234 111.543C58.8458 118.776 58.6234 118.407 59.9723 118.554C61.484 118.719 62.0329 118.654 95.2674 118.539C100.411 118.521 100.455 118.584 100.471 117.383C100.567 110.164 100.468 96.603 95.1933 91.6497ZM58.1046 110.031C58.0899 110.031 33.4232 110.327 33.4085 110.327C34.1644 109.72 34.9222 109.321 35.558 108.741C39.303 105.327 41.0723 100.292 44.6154 95.9928C53.4497 85.2748 57.4937 95.9397 58.5793 109.72C58.6119 110.134 58.3122 110.016 58.1046 110.031ZM60.9064 117.428C59.5429 117.443 60.7333 116.612 60.1058 109.127C58.6637 91.9155 54.1851 92.2599 54.3692 91.5903C54.4625 91.2504 63.5747 91.5903 63.5747 91.4421C94.7639 91.4421 92.6611 90.6248 94.7786 93.1615C99.1562 98.4055 98.861 111.808 99.1517 116.538C99.2156 117.576 102.428 116.957 60.9064 117.428V117.428Z" fill="#173F6F"/>
<path d="M92.7233 53.598C92.1769 52.752 91.4926 51.9322 90.292 51.9967C89.0319 52.0651 56.5667 80.4575 55.931 81.6588C55.0843 83.2588 54.3655 84.9162 53.6333 86.5654C53.0026 87.9852 55.4869 86.775 57.3393 86.0913C59.3411 85.352 58.4805 86.2395 63.4024 82C94.3826 55.3155 94.4338 56.2471 92.7233 53.598ZM62.1123 82.1042C60.2721 83.7175 59.7999 84.7424 57.1316 85.4836C56.8645 85.5578 56.7169 85.5277 56.5386 85.3354C55.2677 83.9674 55.1316 84.7137 56.3016 82.3112C56.8358 81.2147 58.1712 84.5961 58.7034 84.2083C58.9264 84.046 58.7469 83.853 58.644 83.7041C56.9866 81.3106 56.8377 81.3796 57.2805 81.0211C63.8356 75.71 81.8142 59.8975 86.6607 55.6427C87.2684 55.1091 87.0646 55.4906 89.3291 57.7775C89.8307 58.2842 91.4632 56.3647 62.113 82.1035L62.1123 82.1042ZM90.3961 57.4969C89.6997 58.1346 90.0939 57.472 87.639 55.244C87.3438 54.9762 87.5361 54.8446 87.7432 54.7251C87.9214 54.6222 88.0102 54.1469 88.3508 54.5475C90.5028 57.0797 90.7527 57.1711 90.3961 57.4969ZM91.6562 56.3558C90.6933 57.3647 91.3048 56.6618 88.7808 54.2657C88.5904 54.0849 88.5451 53.9571 88.7955 53.7916C89.2581 53.4849 89.8479 52.8683 90.2038 52.8728C90.8415 52.8804 91.8396 53.5526 92.3386 54.9775C92.4734 55.3622 92.2645 55.7187 91.6562 56.3558Z" fill="#173F6F"/>
<path d="M87.252 58.0442C87.4788 58.3375 87.1037 58.5778 86.9849 58.6966C84.9083 60.5151 74.7046 69.5047 73.9832 70.037C73.4848 70.4044 73.2305 69.8511 73.5551 69.5367C74.1391 68.9712 84.1971 60.4014 86.4661 58.3561C86.7542 58.096 87.0775 57.8193 87.252 58.0442Z" fill="#173F6F"/>
<path d="M59.136 82.5633C58.3948 82.5301 58.8715 82.0994 72.0329 70.7341C72.2399 70.5552 72.776 71.1066 72.5223 71.3271C59.3411 82.7818 59.4325 82.5767 59.136 82.5633Z" fill="#173F6F"/>
<path d="M49.664 43.3363C49.5643 40.5961 48.3131 38.5453 44.8027 37.921C43.7027 37.627 42.5641 37.5031 41.4266 37.5539C40.1322 37.4502 38.8297 37.5208 37.5541 37.7637C36.4296 37.7112 35.2782 37.7112 34.1537 37.7637C33.11 37.6687 32.0622 37.626 31.0143 37.6357C29.5428 37.4793 28.0558 37.7045 26.6966 38.2895C24.4194 39.6212 24.3452 42.8425 24.1853 45.144C23.9554 48.4375 24.0957 51.7465 24.6036 55.0087C25.0143 57.6518 25.6501 60.4509 28.5286 61.3925C29.9192 61.8479 30.4219 61.8607 43.0231 61.5499C44.3708 61.6501 45.7247 61.472 47.0005 61.0266C47.5523 60.7532 48.0276 60.3471 48.3837 59.8447C48.7399 59.3423 48.9657 58.7594 49.041 58.1482C49.5911 53.2312 49.7992 48.2821 49.664 43.3363ZM43.201 50.3226C42.3157 50.9316 41.0824 50.6015 40.0871 50.558C39.3285 50.5248 38.5699 50.5056 37.8112 50.48C37.8112 54.4139 38.0006 55.4693 37.4978 56.6539C37.4567 56.7251 37.3976 56.7843 37.3264 56.8254C37.2552 56.8665 37.1745 56.8881 37.0923 56.8881C37.0101 56.8881 36.9293 56.8665 36.8581 56.8254C36.7869 56.7843 36.7278 56.7251 36.6867 56.6539C36.336 55.5476 36.2112 54.3822 36.3196 53.2267C36.3196 52.3107 36.294 51.3691 36.294 50.4531C31.7332 50.4531 31.3648 50.5516 30.4092 50.2446C30.0944 50.1435 29.9409 49.6203 30.3043 49.4591C32.2483 48.9424 34.2607 48.7305 36.2697 48.831C36.2697 44.7666 36.0918 43.7662 36.427 42.5253C36.4636 42.4082 36.5367 42.3058 36.6355 42.2332C36.7344 42.1605 36.8538 42.1213 36.9765 42.1213C37.0992 42.1213 37.2186 42.1605 37.3175 42.2332C37.4163 42.3058 37.4894 42.4082 37.526 42.5253C37.7756 43.7291 37.8548 44.962 37.7613 46.1879C37.7613 47.0834 37.7882 47.9418 37.7882 48.831C38.6505 48.831 39.5409 48.8604 40.4044 48.909C41.4192 48.7821 42.4464 49.0137 43.3084 49.564C43.3594 49.6173 43.3977 49.6815 43.4203 49.7517C43.4429 49.8219 43.4493 49.8964 43.4389 49.9694C43.4286 50.0425 43.4018 50.1122 43.3606 50.1734C43.3194 50.2346 43.2648 50.2856 43.201 50.3226Z" fill="#173F6F"/>
</svg>
